<?xml version="1.0" encoding="utf-8"?>
<!-- Generator: Adobe Illustrator 18.0.0, SVG Export Plug-In . SVG Version: 6.00 Build 0)  -->
<!DOCTYPE svg PUBLIC "-//W3C//DTD SVG 1.1//EN" "http://www.w3.org/Graphics/SVG/1.1/DTD/svg11.dtd">
<svg version="1.1" id="Layer_1" xmlns="http://www.w3.org/2000/svg" xmlns:xlink="http://www.w3.org/1999/xlink" x="0px" y="0px"
	 viewBox="0 118.1 300 63.9" enable-background="new 0 118.1 300 63.9" xml:space="preserve">
<g>
	<g>
		<path fill="#939DAB" d="M67.8,156.4c0.2-0.1,0.6-0.4,1.1-0.7c0.5-0.3,1.1-0.7,1.8-1.2c0.7-0.4,1.4-0.9,2.2-1.5
			c0.8-0.5,1.5-1.1,2.3-1.6l0.2-1.6c0.4-3.4,0.9-6.5,1.7-9.3c0.8-2.8,1.7-5.4,2.8-7.6c1.1-2.3,2.2-4.3,3.5-6
			c1.3-1.7,2.5-3.1,3.8-4.3c1.3-1.1,2.6-2,3.9-2.6c1.3-0.6,2.5-0.9,3.6-0.9c0.8,0,1.5,0.2,2.2,0.5c0.5,0.4,1.1,0.9,1.6,1.5
			s0.9,1.4,1.1,2.3c0.3,0.9,0.4,2,0.4,3.2c0,1.5-0.2,3.1-0.7,4.7c-0.4,1.6-1.1,3.3-1.9,5c-0.8,1.7-1.8,3.3-3,5
			c-1.2,1.7-2.4,3.3-3.8,4.8s-2.9,3-4.5,4.4c-1.6,1.4-3.3,2.6-5.1,3.7c0,1-0.1,1.8-0.1,2.3c0,0.6,0,1,0,1.3c0,0.3,0,0.5,0,0.6v0.3
			c0,0.1,0,0.3,0.1,0.4c0.1,0.1,0.2,0.2,0.3,0.3c0.2,0.1,0.4,0.1,0.7,0.2c0.3,0,0.7,0.1,1.2,0.1c0.7,0,1.7-0.2,3.6-0.7
			c0,0,7.1-2.1,7.2-2.1s1.9-0.7,2.1-0.6c0.3,0.2,0.4,1.1,0.6,1.3c0.2,0.3,0.3,0.6,0.4,0.9c0.1,0.3,0.1,0.7,0.1,1
			c0,0.3-0.1,0.6-0.1,0.9c-0.1,0.3,1.4,0.3,1.2,0.5c-0.2,0.3-2,0.8-2.3,1s-0.6,0.3-1,0.4c-1.6,0.6-3.2,1.2-4.8,1.7
			c-0.7,0.2-1.4,0.4-2.2,0.6c-0.8,0.2-1.6,0.4-2.4,0.5c-0.8,0.2-1.6,0.3-2.5,0.4c-0.8,0.1-1.6,0.1-2.4,0.1c-1.2,0-2.2-0.2-2.9-0.6
			c-0.8-0.4-1.4-1-1.8-1.7c-0.4-0.7-0.8-1.5-0.9-2.4c-0.2-0.9-0.3-1.9-0.3-2.9c-1.4,1-2.5,1.8-3.5,2.4s-1.6,0.9-1.9,0.9
			s-0.5-0.1-0.8-0.3c-0.2-0.2-0.5-0.4-0.7-0.7c-0.2-0.3-0.4-0.6-0.5-1c-0.1-0.4-0.2-0.7-0.2-1.1c0-0.3,0-0.6,0.1-0.9
			C67.3,156.9,67.5,156.6,67.8,156.4 M81.4,147.9c0.8-0.9,1.7-1.8,2.6-2.8s1.8-2,2.6-3.1c0.9-1.1,1.7-2.2,2.5-3.4
			c0.8-1.1,1.5-2.3,2.2-3.4c0.6-1.1,1.2-2.2,1.6-3.3c0.4-1.1,0.7-2.1,0.9-3.1c0-0.3,0.1-0.6,0.1-0.9c0-0.3,0-0.6,0-0.8
			c0-0.9-0.1-1.6-0.4-2c-0.3-0.4-0.6-0.6-1-0.6c-0.5,0-1.1,0.3-1.8,0.8c-0.7,0.5-1.4,1.3-2.2,2.3c-0.7,1-1.5,2.2-2.3,3.6
			c-0.8,1.4-1.5,3-2.1,4.7c-0.7,1.7-1.2,3.6-1.7,5.7C82,143.6,81.6,145.8,81.4,147.9"/>
		<path fill="#939DAB" d="M103.6,164.2c-1.5,0-2.8-0.3-4-0.8c-1.1-0.5-2.1-1.3-2.8-2.2c-0.8-0.9-1.3-2-1.7-3.2
			c-0.4-1.2-0.6-2.5-0.6-3.8c0-0.9,0.1-1.9,0.3-2.9c0.2-1,0.4-2,0.8-2.9c0.4-1,0.8-1.9,1.4-2.8c0.5-0.9,1.2-1.6,1.9-2.3
			c0.7-0.7,1.5-1.2,2.5-1.6c0.9-0.4,1.9-0.6,3-0.6c0.9,0,1.7,0.1,2.5,0.4s1.4,0.7,2,1.2s1,1.1,1.3,1.9c0.3,0.7,0.5,1.6,0.5,2.5
			c0,1-0.2,2-0.7,3c-0.5,1-1.2,1.9-2,2.8c-0.9,0.9-1.9,1.7-3.1,2.4c-1.2,0.7-2.5,1.2-3.9,1.6c0.2,0.4,0.5,0.8,0.7,1.1
			s0.5,0.5,0.7,0.7s0.5,0.3,0.8,0.3c0.3,0.1,0.6,0.1,0.9,0.1c1,0,2-0.2,3-0.6c1.1-0.4,2.1-0.9,3.1-1.4c1-0.6,2-1.2,2.9-1.9
			c0.9-0.7,1.7-1.3,2.3-1.9l3.1,3.2c-1.4,1.5-2.9,2.8-4.5,3.9c-0.7,0.5-1.4,1-2.2,1.4c-0.8,0.5-1.6,0.9-2.5,1.2
			c-0.9,0.4-1.8,0.6-2.7,0.9C105.5,164.1,104.6,164.2,103.6,164.2 M100.4,153c0.6,0,1.2-0.2,1.9-0.4c0.7-0.3,1.3-0.7,1.9-1.1
			c0.6-0.5,1.1-1,1.5-1.5s0.6-1.1,0.6-1.6c0-0.7-0.1-1.3-0.4-1.8s-0.6-0.7-1-0.7c-0.7,0-1.3,0.1-1.8,0.4c-0.5,0.3-0.9,0.6-1.2,1
			c-0.3,0.4-0.6,0.9-0.8,1.4c-0.2,0.5-0.4,1-0.5,1.6c-0.1,0.5-0.2,1-0.2,1.5C100.4,152.1,100.4,152.6,100.4,153"/>
		<path fill="#939DAB" d="M139.6,158.4c-0.4,0.5-0.9,1.1-1.5,1.8c-0.6,0.7-1.3,1.3-2.1,2c-0.8,0.6-1.6,1.2-2.5,1.6s-1.8,0.6-2.6,0.6
			c-1.1,0-1.9-0.3-2.6-1c-0.7-0.7-1.3-1.7-1.8-3c-0.4,0.4-0.9,0.9-1.4,1.4c-0.6,0.5-1.2,0.9-1.8,1.3c-0.7,0.4-1.4,0.7-2.1,0.9
			s-1.4,0.4-2.2,0.4c-0.8,0-1.5-0.2-2.3-0.5c-0.7-0.3-1.4-0.8-1.9-1.3c-0.6-0.6-1-1.3-1.3-2.1c-0.3-0.8-0.5-1.8-0.5-2.9
			c0-1.2,0.2-2.4,0.5-3.7c0.3-1.3,0.8-2.5,1.4-3.7c0.6-1.2,1.3-2.4,2.1-3.4c0.8-1.1,1.7-2,2.7-2.8c1-0.8,2-1.4,3-1.9
			c1.1-0.5,2.2-0.7,3.3-0.7c0.4,0,0.7,0.1,0.9,0.2c0.2,0.1,0.4,0.3,0.5,0.5s0.3,0.4,0.4,0.5c0.1,0.2,0.3,0.3,0.5,0.4
			c0.2,0.1,0.4,0.1,0.6,0.2c0.2,0,0.4,0,0.6,0c0.2,0,0.4,0,0.5,0c0.2,0,0.4,0,0.5,0c0.2,0,0.5,0,0.7,0.1c0.2,0.1,0.4,0.2,0.6,0.3
			c0.2,0.2,0.3,0.4,0.4,0.7c0.1,0.3,0.1,0.7,0.1,1.2c0,0.8-0.1,1.6-0.2,2.6c-0.2,0.9-0.3,1.9-0.5,2.9s-0.4,2-0.5,3
			c-0.2,1-0.2,1.9-0.2,2.8c0,0.8,0.1,1.3,0.2,1.8c0.1,0.4,0.4,0.6,0.9,0.6c0.3,0,0.7-0.1,1.1-0.3c0.4-0.2,0.7-0.4,1.1-0.7
			c0.4-0.3,0.8-0.6,1.1-0.9c0.4-0.3,0.7-0.7,1.1-1.1c0.8-0.9,1.6-1.8,2.4-2.9L139.6,158.4z M119,156.5c0,0.4,0,0.8,0.1,1.2
			c0.1,0.4,0.2,0.7,0.3,1c0.1,0.3,0.3,0.5,0.6,0.7c0.2,0.2,0.5,0.3,0.9,0.3c0.6,0,1.1-0.3,1.6-0.8s0.9-1.1,1.3-1.8s0.6-1.5,0.9-2.2
			c0.2-0.8,0.4-1.4,0.4-1.9l1.5-7.1c-0.7,0-1.3,0.2-1.9,0.5s-1.2,0.8-1.8,1.3c-0.6,0.6-1.1,1.2-1.5,1.9c-0.5,0.7-0.9,1.5-1.2,2.3
			c-0.3,0.8-0.6,1.6-0.8,2.4C119.1,155.1,119,155.8,119,156.5"/>
		<path fill="#939DAB" d="M163.9,159.6c-1.1,0.9-2.3,1.7-3.4,2.4c-0.5,0.3-1,0.6-1.5,0.9s-1,0.5-1.5,0.7s-1,0.4-1.5,0.5
			c-0.5,0.1-0.9,0.2-1.3,0.2c-0.2,0-0.6,0-1-0.1s-0.9-0.3-1.4-0.6c-0.5-0.3-1-0.7-1.6-1.3c-0.5-0.6-1-1.3-1.4-2.2
			c-0.6,0.6-1.2,1.1-1.9,1.6s-1.4,1-2.1,1.4c-0.7,0.4-1.4,0.7-2.2,0.9c-0.7,0.2-1.5,0.3-2.2,0.3c-1,0-1.9-0.2-2.7-0.7
			c-0.8-0.4-1.4-1-1.9-1.8c-0.5-0.7-0.9-1.6-1.1-2.5c-0.2-0.9-0.4-1.9-0.4-2.9s0.1-2.1,0.4-3.1c0.3-1,0.7-2.1,1.2-3.1
			s1.1-1.9,1.8-2.8c0.7-0.9,1.5-1.7,2.5-2.3c0.9-0.7,1.9-1.2,3-1.7c1.1-0.4,2.2-0.7,3.4-0.8c0-2.1,0.2-4.1,0.6-6.1
			c0.3-2,0.7-3.9,1.3-5.7c0.5-1.8,1.2-3.5,1.9-5s1.5-2.9,2.3-4s1.8-2,2.7-2.6c1-0.6,2-1,3-1c0.8,0,1.4,0.2,1.9,0.6s1,0.9,1.3,1.6
			c0.3,0.6,0.6,1.4,0.7,2.3c0.1,0.9,0.2,1.7,0.2,2.7c0,0.6,0,1.1-0.1,1.7c-0.2,2.3-0.6,4.4-1.2,6.4c-0.6,2-1.2,4-2,5.9
			c-0.7,1.9-1.6,3.8-2.5,5.7c-0.9,1.9-1.7,3.8-2.6,5.8c-0.1,0.2-0.2,0.5-0.2,0.8c-0.1,0.3-0.2,0.7-0.2,1c-0.1,0.4-0.1,0.8-0.2,1.2
			c0,0.4-0.1,0.8-0.1,1.1c0,0.5,0,0.9,0.1,1.3c0.1,0.4,0.1,0.8,0.3,1.1c0.1,0.3,0.3,0.6,0.5,0.8s0.5,0.3,0.8,0.3s0.6-0.1,1-0.2
			c0.4-0.1,0.7-0.3,1.1-0.5c0.4-0.2,0.8-0.4,1.2-0.7s0.8-0.5,1.2-0.8c0.9-0.6,1.8-1.4,2.8-2.2L163.9,159.6z M147.3,146.1
			c-1.1,0.5-2,1.2-2.8,2s-1.5,1.8-2.1,2.7c-0.6,1-1,2-1.3,3s-0.4,1.9-0.4,2.7c0,0.3,0,0.6,0.1,1c0.1,0.3,0.2,0.6,0.4,0.9
			s0.5,0.5,0.8,0.6c0.4,0.2,0.8,0.2,1.4,0.2c0.3,0,0.6-0.1,0.9-0.2c0.3-0.1,0.5-0.3,0.8-0.6c0.3-0.2,0.5-0.5,0.7-0.8
			s0.5-0.6,0.6-0.9c0.4-0.7,0.9-1.6,1.2-2.5c0-0.2-0.1-0.6-0.1-1.1s-0.1-1-0.1-1.6c0-0.6,0-1.2,0-1.9c0-0.6,0-1.2,0-1.8
			c0-0.5,0-1,0-1.3C147.4,146.2,147.4,146.1,147.3,146.1 M158.6,128.7c0.1-1.1,0.1-2,0.1-2.7c0-0.9-0.1-1.5-0.2-1.8
			c-0.2-0.3-0.4-0.5-0.7-0.5c-0.5,0-1,0.3-1.4,1c-0.4,0.6-0.8,1.5-1.1,2.5c-0.3,1-0.6,2.1-0.8,3.4c-0.2,1.2-0.4,2.4-0.6,3.5
			c-0.2,1.1-0.3,2.2-0.4,3.1c-0.1,0.9-0.2,1.6-0.2,1.9c-0.1,0.8-0.1,1.5-0.2,2.3c0,0.7-0.1,1.4-0.1,2c0,0.6,0,1.1,0,1.6v1v0.2
			c0.9-2.1,1.8-4.2,2.5-6.2c0.3-0.9,0.6-1.8,1-2.8c0.3-1,0.6-1.9,0.9-2.9c0.3-1,0.5-1.9,0.7-2.9
			C158.4,130.4,158.6,129.4,158.6,128.7"/>
		<path fill="#939DAB" d="M196.4,156.1c0,1.9-0.1,3.8-0.3,5.8s-0.6,4-1,5.9c-0.5,1.9-1.1,3.7-1.9,5.5c-0.8,1.7-1.8,3.2-2.9,4.5
			c-1.2,1.3-2.5,2.3-4.1,3.1c-1.5,0.8-3.3,1.1-5.3,1.1c-0.4,0-0.8,0-1.3-0.1c-0.5,0-1-0.1-1.6-0.2c-0.6-0.1-1.1-0.3-1.7-0.4
			c-0.6-0.2-1-0.4-1.5-0.7c-0.4-0.3-0.8-0.6-1.1-0.9c-0.3-0.4-0.4-0.8-0.4-1.2c0-0.2,0.1-0.6,0.2-1c0.1-0.4,0.3-0.8,0.5-1.1
			c0.2-0.4,0.5-0.7,0.8-1c0.3-0.3,0.7-0.4,1.2-0.4s1,0.1,1.5,0.3c0.5,0.2,1,0.4,1.5,0.6s1.1,0.4,1.7,0.6c0.6,0.2,1.2,0.3,1.9,0.3
			c0.8,0,1.5-0.4,2.2-1.2c0.7-0.8,1.4-1.8,2.1-3c0.6-1.2,1.2-2.6,1.8-4.2c0.5-1.5,1-3.1,1.4-4.6c-0.8,0.7-1.6,1.4-2.4,2
			c-0.9,0.6-1.8,1.2-2.9,1.7c-1.1,0.5-2.4,0.9-3.8,1.1c-1.4,0.3-3,0.4-4.9,0.4c-2.2,0-4.1-0.4-5.9-1.3c-1.7-0.9-3.2-2.1-4.5-3.5
			c-1.2-1.5-2.2-3.2-2.9-5.2s-1-4-1-6.2c0-2.8,0.3-5.6,1-8.1c0.7-2.6,1.6-5,2.8-7.2s2.6-4.2,4.3-6c1.6-1.8,3.4-3.3,5.3-4.6
			c1.9-1.3,3.9-2.3,6-3c2.1-0.7,4.2-1,6.2-1c1.3,0,2.5,0.2,3.6,0.6c1.1,0.4,2.1,1,2.9,1.8c0.8,0.8,1.4,1.9,1.9,3.1
			c0.5,1.3,0.7,2.7,0.7,4.5c0,0.7-0.1,1.3-0.2,2c-0.2,0.7-0.4,1.3-0.8,2c-0.5,0.8-1,1.3-1.5,1.6s-0.9,0.5-1.4,0.5
			c-0.3,0-0.7-0.1-0.9-0.3c-0.3-0.2-0.5-0.4-0.7-0.7s-0.4-0.6-0.5-1c-0.1-0.4-0.2-0.7-0.2-1.1c0-0.3,0-0.6,0.1-0.9s0.2-0.6,0.3-0.9
			c0.1-0.3,0.2-0.6,0.3-0.9s0.1-0.6,0.1-1c0-1.6-0.3-2.8-1.1-3.6c-0.7-0.8-1.6-1.2-2.6-1.2c-1.3,0-2.7,0.3-4.1,0.8
			c-1.4,0.5-2.8,1.3-4.2,2.3s-2.7,2.3-3.9,3.8s-2.3,3.2-3.3,5.1c-0.9,1.9-1.7,4-2.2,6.3c-0.6,2.3-0.8,4.8-0.8,7.4
			c0,1.7,0.2,3.1,0.6,4.3c0.4,1.2,1,2.2,1.7,3.1c0.8,0.8,1.7,1.4,2.8,1.8c1.1,0.4,2.3,0.6,3.7,0.6c2.5,0,4.9-0.3,7-1s4.1-1.6,6-2.9
			c0.1-0.5,0.2-0.9,0.3-1.4c0.1-0.4,0.1-0.8,0.1-1.2c0-0.5-0.1-0.9-0.2-1.1c-0.1-0.3-0.3-0.5-0.5-0.6c-0.2-0.1-0.5-0.2-0.8-0.3
			c-0.3,0-0.6-0.1-1-0.1c-0.6,0-1.1-0.1-1.6-0.2c-0.5-0.2-0.8-0.4-1.2-0.6c-0.3-0.3-0.6-0.6-0.7-0.9c-0.2-0.3-0.2-0.7-0.2-1
			c0-0.3,0.1-0.7,0.2-1c0.2-0.3,0.4-0.6,0.7-0.8c0.3-0.2,0.7-0.4,1.2-0.6s1.1-0.2,1.7-0.2c1.6,0,2.8,0.2,3.8,0.5
			c1,0.3,1.8,0.8,2.4,1.4c0.6,0.6,1,1.4,1.2,2.3C196.3,153.9,196.4,155,196.4,156.1"/>
		<path fill="#939DAB" d="M206.6,164.2c-1.5,0-2.8-0.3-4-0.8c-1.1-0.5-2.1-1.3-2.8-2.2c-0.8-0.9-1.3-2-1.7-3.2s-0.6-2.5-0.6-3.8
			c0-0.9,0.1-1.9,0.3-2.9s0.4-2,0.8-2.9c0.4-1,0.8-1.9,1.4-2.8c0.5-0.9,1.2-1.6,1.9-2.3s1.5-1.2,2.5-1.6c0.9-0.4,1.9-0.6,3-0.6
			c0.9,0,1.7,0.1,2.5,0.4s1.4,0.7,2,1.2s1,1.1,1.3,1.9c0.3,0.7,0.5,1.6,0.5,2.5c0,1-0.2,2-0.7,3c-0.5,1-1.2,1.9-2,2.8
			c-0.9,0.9-1.9,1.7-3.1,2.4c-1.2,0.7-2.5,1.2-3.9,1.6c0.2,0.4,0.5,0.8,0.7,1.1s0.5,0.5,0.7,0.7s0.5,0.3,0.8,0.3
			c0.3,0.1,0.5,0.1,0.9,0.1c1,0,2-0.2,3-0.6c1.1-0.4,2.1-0.9,3.1-1.4c1-0.6,2-1.2,2.9-1.9c0.9-0.7,1.7-1.3,2.3-1.9l3.1,3.2
			c-1.4,1.5-2.9,2.8-4.5,3.9c-0.7,0.5-1.4,1-2.2,1.4c-0.8,0.5-1.6,0.9-2.5,1.2c-0.9,0.4-1.8,0.6-2.7,0.9
			C208.5,164.1,207.6,164.2,206.6,164.2 M203.4,153c0.6,0,1.2-0.2,1.9-0.4c0.7-0.3,1.3-0.7,1.9-1.1c0.6-0.5,1.1-1,1.5-1.5
			s0.6-1.1,0.6-1.6c0-0.7-0.1-1.3-0.4-1.8c-0.3-0.5-0.6-0.7-1-0.7c-0.7,0-1.3,0.1-1.8,0.4c-0.5,0.3-0.9,0.6-1.2,1
			c-0.3,0.4-0.6,0.9-0.8,1.4s-0.4,1-0.5,1.6c-0.1,0.5-0.2,1-0.2,1.5C203.5,152.1,203.4,152.6,203.4,153"/>
		<path fill="#939DAB" d="M217.4,159.2c0-1.1,0.1-2.3,0.2-3.7c0.1-1.4,0.3-2.8,0.5-4.2c0.2-1.4,0.4-2.8,0.6-4.2
			c0.2-1.3,0.5-2.5,0.7-3.4c0.2-0.7,0.5-1.4,1-1.9s1.2-0.7,2.1-0.7c0.9,0,1.5,0.3,1.8,0.8s0.5,1.2,0.5,2.1c0,0.2,0,0.6-0.1,1
			c0,0.4-0.1,0.9-0.2,1.3c-0.1,0.5-0.1,1-0.2,1.5c-0.1,0.5-0.2,1-0.2,1.4c-0.1,0.4-0.1,0.8-0.2,1.2c0,0.3-0.1,0.6-0.1,0.7h0.5
			c0.1-0.2,0.2-0.5,0.5-0.9c0.2-0.4,0.4-0.8,0.7-1.4c0.3-0.5,0.6-1.1,0.9-1.6c0.3-0.6,0.6-1.1,0.9-1.6c0.3-0.5,0.5-1,0.7-1.4
			s0.4-0.7,0.5-0.9c0.5-0.9,1.1-1.5,1.8-1.8s1.4-0.5,2.2-0.5s1.4,0.3,1.9,1s0.7,1.6,0.7,2.8c0,0.2,0,0.5-0.1,0.9s-0.2,0.9-0.3,1.5
			s-0.2,1.2-0.4,1.9c-0.1,0.7-0.3,1.4-0.4,2.1c-0.1,0.7-0.2,1.4-0.3,2.1c-0.1,0.7-0.1,1.4-0.1,1.9c0,1,0.1,1.8,0.4,2.5
			c0.3,0.6,0.6,1,1.2,1c0.2,0,0.5-0.1,0.8-0.2c0.3-0.1,0.6-0.3,1-0.6c0.4-0.2,0.7-0.5,1.1-0.8c0.4-0.3,0.7-0.6,1.1-0.9
			c0.8-0.7,1.7-1.6,2.7-2.5l0.4,5.4l-1.2,0.9c-0.7,0.5-1.3,1-2,1.5s-1.4,0.9-2.1,1.3c-0.7,0.4-1.5,0.7-2.3,1
			c-0.8,0.2-1.6,0.4-2.5,0.4s-1.6-0.6-2.2-1.9c-0.6-1.3-0.9-3.1-0.9-5.6c0-1,0.1-2,0.2-3.1c0.1-1.1,0.3-2.3,0.5-3.6h-0.4l-6.3,12.5
			c-0.3,0.7-0.7,1.1-1.1,1.3c-0.4,0.2-0.9,0.4-1.4,0.4c-0.7,0-1.2-0.1-1.6-0.4c-0.4-0.3-0.7-0.7-0.9-1.1c-0.2-0.5-0.4-1-0.4-1.6
			C217.5,160.6,217.4,159.9,217.4,159.2"/>
		<path fill="#939DAB" d="M254.4,159.1c-0.6,0.5-1.3,1.1-2.2,1.7c-0.9,0.6-1.8,1.2-2.8,1.7s-2,0.9-3,1.3c-1,0.3-2,0.5-2.9,0.5
			c-0.8,0-1.5-0.1-2.1-0.4c-0.6-0.2-1-0.6-1.4-1c-0.4-0.4-0.6-0.9-0.8-1.5c-0.2-0.6-0.2-1.3-0.2-2c0-1,0.1-2.2,0.4-3.5
			c0.2-1.3,0.5-2.7,0.9-4.2c0.3-1.4,0.7-2.9,1.1-4.3c0.4-1.4,0.7-2.7,1-3.9c0.1-0.4,0.3-0.8,0.7-1.1c0.3-0.3,0.7-0.5,1.1-0.7
			c0.4-0.2,0.9-0.3,1.3-0.4c0.5-0.1,0.9-0.1,1.2-0.1c0.7,0,1.1,0.1,1.4,0.4c0.2,0.3,0.4,0.6,0.4,1c0,0.4-0.1,0.9-0.2,1.5
			c-0.2,0.7-0.4,1.4-0.6,2.3c-0.2,0.8-0.5,1.7-0.8,2.7s-0.5,1.9-0.8,2.9c-0.2,1-0.4,1.9-0.6,2.8c-0.2,0.9-0.2,1.7-0.2,2.5
			c0,0.7,0.1,1.3,0.2,1.7c0.2,0.4,0.5,0.6,1,0.6c0.6,0,1.2-0.2,1.9-0.6c0.7-0.4,1.4-0.9,2.1-1.5c0.7-0.6,1.4-1.2,2.1-1.8
			c0.7-0.6,1.3-1.1,1.8-1.6L254.4,159.1L254.4,159.1z M243.6,134.4c0-0.4,0.1-0.8,0.2-1.3c0.2-0.5,0.4-0.9,0.8-1.3
			c0.4-0.4,0.8-0.8,1.4-1c0.6-0.3,1.4-0.4,2.3-0.4c0.6,0,1.1,0.1,1.6,0.2c0.5,0.1,0.9,0.3,1.3,0.6c0.4,0.3,0.7,0.6,0.9,1
			c0.2,0.4,0.3,0.9,0.3,1.5c0,0.5-0.1,1.1-0.3,1.6s-0.5,1-0.8,1.4c-0.4,0.4-0.9,0.7-1.5,1c-0.6,0.2-1.3,0.4-2.1,0.4
			c-1.4,0-2.5-0.3-3.1-1C243.9,136.4,243.6,135.6,243.6,134.4"/>
		<path fill="#939DAB" d="M270.6,142.8c0,0.4,0,1-0.1,1.8c-0.1,0.7-0.2,1.6-0.4,2.5c-0.2,0.9-0.3,1.8-0.5,2.8
			c-0.2,0.9-0.3,1.8-0.5,2.6s-0.3,1.5-0.4,2.2c-0.1,0.6-0.1,1-0.1,1.3c0,0.4,0,0.9,0,1.2c0,0.4,0.1,0.7,0.1,1
			c0.1,0.3,0.2,0.5,0.4,0.7c0.2,0.1,0.4,0.2,0.7,0.2c0.4,0,0.8-0.1,1.3-0.3c0.5-0.2,1-0.4,1.6-0.7s1.2-0.6,1.7-1
			c0.6-0.4,1.2-0.8,1.7-1.2c0.5-0.4,1-0.8,1.5-1.2c0.4-0.4,0.8-0.8,1.1-1.1c0,0.5,0,1,0,1.4c0,0.4,0,0.8,0,1.2c0,0.4,0,0.8,0,1.2
			s0,0.9,0,1.4c-0.4,0.4-0.8,0.7-1.3,1.1s-1.1,0.8-1.7,1.2c-0.6,0.4-1.3,0.8-2,1.2c-0.7,0.4-1.4,0.7-2.2,1c-0.7,0.3-1.4,0.5-2.1,0.7
			c-0.7,0.2-1.4,0.3-2,0.3s-1.1-0.1-1.6-0.4c-0.4-0.2-0.8-0.6-1.1-1c-0.3-0.4-0.6-0.9-0.8-1.5c-0.2-0.6-0.4-1.3-0.6-2
			c-0.6,0.8-1.2,1.4-1.8,2.1c-0.6,0.6-1.3,1.2-2,1.7s-1.3,0.8-2,1.1c-0.7,0.3-1.3,0.4-2,0.4c-0.5,0-1-0.1-1.5-0.3s-0.9-0.5-1.2-0.9
			c-0.4-0.4-0.6-1-0.9-1.6c-0.2-0.7-0.3-1.5-0.3-2.5c0-1.2,0.1-2.8,0.4-4.7c0.3-1.9,0.7-4.1,1.1-6.5c0-0.2,0.1-0.6,0.2-1
			c0.1-0.4,0.2-0.9,0.4-1.3c0.2-0.5,0.3-1,0.6-1.5c0.2-0.5,0.5-0.9,0.8-1.4c0.3-0.4,0.7-0.7,1.1-1c0.4-0.3,0.9-0.4,1.4-0.4
			c0.8,0,1.5,0.1,1.8,0.3c0.4,0.2,0.6,0.4,0.6,0.7c-0.1,0.9-0.3,1.8-0.5,2.8s-0.3,2.1-0.5,3.2c-0.2,1.1-0.3,2.1-0.5,3.1
			s-0.3,1.9-0.4,2.7s-0.2,1.4-0.3,1.9c-0.1,0.5-0.1,0.7-0.1,0.7c0,0.3,0,0.6,0.1,0.8c0.1,0.3,0.1,0.5,0.3,0.7
			c0.1,0.2,0.3,0.4,0.4,0.5c0.2,0.1,0.4,0.2,0.6,0.2c0.4,0,0.7-0.1,1.1-0.3c0.4-0.2,0.7-0.4,1-0.8c0.3-0.3,0.6-0.8,0.9-1.3
			s0.4-1.1,0.6-1.7l2.4-12.2c0.1-0.4,0.4-0.7,1-1c0.6-0.3,1.2-0.4,1.9-0.4c0.8,0,1.5,0.1,2,0.4C270.4,141.9,270.6,142.2,270.6,142.8
			"/>
		<path fill="#939DAB" d="M275,155.1c0.9-0.8,1.6-1.4,2.2-1.9s1-1,1.4-1.4s0.8-0.9,1.1-1.3c0.3-0.4,0.7-0.9,1.2-1.5
			c0.4-0.6,1-1.3,1.6-2.2s1.5-1.9,2.5-3.2c0.2-0.3,0.4-0.6,0.7-0.8c0.3-0.3,0.5-0.5,0.9-0.7c0.3-0.2,0.7-0.4,1-0.5
			c0.4-0.1,0.8-0.2,1.3-0.2c0.8,0,1.4,0.1,1.8,0.3c0.4,0.2,0.7,0.4,0.9,0.6c0.2,0.2,0.3,0.5,0.3,0.8c0,0.3,0,0.5,0,0.7
			c0,0.4-0.2,0.8-0.5,1.3s-0.6,0.9-1,1.3c-0.4,0.4-0.7,0.8-1,1.2c-0.3,0.4-0.5,0.6-0.6,0.8c0,0.5,0,1,0.1,1.4
			c0.1,0.4,0.2,0.8,0.3,1.2c0.1,0.4,0.2,0.8,0.4,1.2c0.1,0.4,0.3,1,0.4,1.5c0.1,0.6,0.2,1.2,0.3,2c0.1,0.8,0.1,1.6,0.1,2.7
			c0.6-0.4,1.2-0.7,1.9-1c0.7-0.3,1.4-0.6,2.1-1c0.7-0.3,1.5-0.7,2.2-1.1c0.8-0.4,2.5-1.2,3.3,0.5s-2,4.2-2.6,4.6
			c-0.6,0.3-1.2,0.7-1.8,1c-1.3,0.7-2.7,1.3-4.1,1.8s-2.9,0.9-4.3,1.2c-1.5,0.3-2.9,0.4-4.2,0.4c-0.9,0-1.8-0.1-2.6-0.3
			c-0.8-0.2-1.5-0.5-2.2-0.8c-0.6-0.4-1.1-0.9-1.5-1.5c-0.4-0.6-0.6-1.3-0.7-2.2c-0.2,0-0.4,0.1-0.7,0.1c-0.2,0-0.4,0-0.6,0
			c-0.3,0-0.5,0-0.7,0s-0.4-0.1-0.6-0.2c-0.2-0.1-0.3-0.3-0.4-0.5c-0.1-0.2-0.1-0.6-0.1-1c0-0.4,0.1-0.7,0.3-1.1
			c0.2-0.3,0.4-0.6,0.7-0.9c0.3-0.3,0.5-0.5,0.8-0.7C274.7,155.2,274.9,155.1,275,155.1 M278.1,158.1c0.2,0,0.4,0.1,0.6,0.4
			c0.2,0.2,0.5,0.5,0.8,0.8c0.3,0.3,0.7,0.6,1.1,0.8c0.4,0.2,0.9,0.4,1.4,0.4c0.6,0,1.1-0.1,1.6-0.3c0.4-0.2,0.7-0.5,1-0.8
			c0.2-0.3,0.4-0.7,0.5-1.2s0.1-0.9,0.1-1.4c0-0.4,0-0.9-0.1-1.3c-0.1-0.5-0.1-0.9-0.2-1.3s-0.2-0.8-0.3-1.2
			c-0.1-0.4-0.2-0.7-0.3-0.9L278.1,158.1z"/>
	</g>
	<g>
		<path fill="#939DAB" d="M51.5,152.1c0,0-1.1,0.1-3.4-0.6c-2.8-0.9-7.2-1-11.7-0.8c-4.3,0.2-5,0.7-5.7,1c-0.5,0.2-2.4,1.1-3.8,1.1
			c-0.7,0,0,0-0.8,0c-1.4,0-2.8-0.9-3.3-1.1c-0.8-0.3-2.2-0.8-6.3-1.1c-4.3-0.3-8.9-0.1-11.7,0.8c-2.3,0.8-3.3,0.7-3.3,0.7
			c-0.5,1.4,0,2.5,0,2.5c1.2,0.6,1.7,2.3,1.7,2.3C3.8,166,10.5,166,14,166c5,0,8.5-2.1,9.7-7.2c0.4-1.7,0.6-2.5,1.2-2.9
			c0.6-0.4,2.5-0.4,3.2,0c0.6,0.3,0.8,1.1,1.2,2.9c1.3,5.1,4.7,7.2,9.7,7.2c3.5,0,10.2,0.1,10.8-9.1c0,0,0.5-1.7,1.7-2.3
			C51.5,154.6,52,153.5,51.5,152.1z M4.5,153.6c0,0.1-0.1,0.2-0.2,0.2H2.6c-0.1,0-0.2-0.1-0.2-0.2v-0.4c0-0.1,0.1-0.2,0.2-0.2h1.7
			c0.1,0,0.2,0.1,0.2,0.2V153.6z M11.9,164.6c-5.2-0.3-6.5-4.4-6.6-7.2s0.2-3.8,2.7-4.5s14.3-1.4,14.4,2.3
			C22.5,159,21.7,165.1,11.9,164.6z M47.6,157.5c-0.1,2.8-1.3,6.9-6.6,7.2c-9.8,0.5-10.4-5.6-10.6-9.3c-0.2-3.8,11.9-3.1,14.4-2.4
			C47.4,153.6,47.7,154.6,47.6,157.5z M50.5,153.6c0,0.1-0.1,0.2-0.2,0.2h-1.7c-0.1,0-0.2-0.1-0.2-0.2v-0.4c0-0.1,0.1-0.2,0.2-0.2
			h1.7c0.1,0,0.2,0.1,0.2,0.2V153.6z"/>
	</g>
	<path fill="#939DAB" d="M52,140.9c-0.1-0.1-0.2-0.2-0.3-0.3c-0.6-0.5-1.3-0.8-2.1-0.8c-1.1,0-2,0.6-2.5,1.6
		c-0.2,0.4-0.7,0.5-1.1,0.3c-0.4-0.2-0.5-0.7-0.3-1.1c0.8-1.4,2.3-2.4,3.9-2.4c0.5,0,1,0,1.4,0.2c0.4-0.9,0.7-1.9,0.7-3
		c0-2.8-1.6-5.2-4-6.4c-1.5-0.5-3.2-0.1-4.4,1.1c-1.7,1.7-1.7,4.4,0,6.1c0.3,0.3,0.3,0.8,0,1.2l-0.1,0.1c-0.1,0.1-0.1,0.2-0.2,0.2
		c-0.1,0.1-0.3,0.1-0.4,0.1c-0.3,0-0.5-0.1-0.7-0.4c-1.3-2-3.9-2.7-6-1.4c-0.5,0.3-0.9,0.7-1.2,1.1s-0.8,0.4-1.1,0.2
		c-0.4-0.3-0.4-0.8-0.2-1.1c0.5-0.6,1-1.1,1.7-1.6c1.7-1.1,3.8-1.1,5.5-0.4c-0.3-1.9,0.2-3.9,1.6-5.3c0.7-0.7,1.5-1.1,2.3-1.4
		c-0.3-1.3-1-2.3-2.1-3c-0.4-0.2-0.7-0.3-1.1-0.3c-0.8,0-1.6,0.2-2.1,0.8c-0.6,0.5-0.9,1.3-1,2.1c0,0.4-0.4,0.8-0.8,0.8l0,0
		c-0.4,0-0.8-0.4-0.8-0.8c0-1.2,0.6-2.4,1.5-3.2c0.3-0.3,0.7-0.5,1.1-0.7c-1.4-3.2-4.3-5.2-7.6-5.2c-1.7,0-3.2,0.5-4.5,1.4v5.6
		c0,3.4,2.7,6.1,6.1,6.1c0.5,0,0.8,0.4,0.8,0.8c0,0.5-0.4,0.8-0.8,0.8c-1.9,0-3.6-0.7-4.9-1.8c-0.4,1.5-1.2,2.8-2.4,3.9
		c-1.4,1.2-3.2,1.9-5,1.9c-0.2,0-0.4,0-0.6,0c-0.4,0-0.8-0.4-0.8-0.9s0.4-0.8,0.9-0.8c1.6,0.1,3.2-0.4,4.4-1.5
		c1.2-1.1,2-2.5,2.1-4.1c-0.9-1.2-1.4-2.7-1.4-4.4v-5.6c-1.3-0.9-2.8-1.4-4.5-1.4c-3.3,0-6.1,2-7.3,4.9c0.3,0.5,0.8,0.8,1.4,1
		c0.7,0.2,1.4,0.1,2-0.2l0,0c0.1,0,0.1-0.1,0.2-0.1c1.1-0.6,2.3-0.8,3.5-0.5c0.4,0.1,0.7,0.6,0.6,1s-0.6,0.7-1,0.6
		c-0.8-0.2-1.6-0.1-2.3,0.3c-0.7,0.4-1.2,1.1-1.4,1.8c-0.3,1,0,2.1,0.8,2.9c0.3,0.3,0.3,0.8,0,1.2c-0.2,0.2-0.4,0.2-0.6,0.2
		s-0.4-0.1-0.6-0.2c-1.2-1.2-1.6-2.8-1.2-4.4c0.1-0.3,0.2-0.5,0.3-0.8c-0.3,0-0.6-0.1-0.9-0.2c-1-0.3-1.8-0.9-2.4-1.8
		c-2,0.3-3.5,1.9-4,3.8c0.8,0.3,1.6,0.8,2.3,1.4c2.3,2.3,2.3,6.1,0,8.4c-0.2,0.2-0.4,0.2-0.6,0.2c-0.2,0-0.4-0.1-0.6-0.2
		c-0.3-0.3-0.3-0.8,0-1.2c1.7-1.7,1.7-4.4,0-6.1c-1.2-1.2-2.8-1.5-4.3-1.1c-2.2,1.1-3.9,3.5-3.9,6.4c0,1,0.2,2,0.6,2.9
		c0.2,0,0.4-0.1,0.6-0.1c1.2,0,2.4,0.4,3.3,1.2c0.9,0.8,1.4,2,1.5,3.2c0,0.4-0.3,0.8-0.8,0.8l0,0c-0.4,0-0.8-0.3-0.8-0.8
		c0-0.8-0.4-1.5-1-2.1c-0.6-0.5-1.3-0.8-2.1-0.8c-0.4,0-0.9,0.1-1.2,0.3c-0.7,1.1-1.1,2.3-1.1,3.6c0,3.1,2.4,5.7,5.4,5.9
		c0.7,0.4,6.1-0.6,10-0.6c7.3,0,8.2,2.1,11,2.1c2.7,0,5.1-2.1,10.1-2.1c4.1,0,9.6,0.8,10.5,0.6c3.1-0.3,5.4-2.8,5.4-5.9
		C52.6,142.6,52.4,141.7,52,140.9z M19,145.8c-0.4,0.2-0.9,0-1.1-0.5c-0.6-1.4-1.8-2.5-3.4-2.7c-1.2-0.2-2.3,0.1-3.3,0.8
		s-1.6,1.7-1.8,2.8c-0.1,0.4-0.4,0.7-0.8,0.7H8.5c-0.4-0.1-0.7-0.5-0.7-0.9c0.3-1.6,1.1-3,2.4-3.9s2.9-1.3,4.5-1
		c2.1,0.3,3.9,1.8,4.6,3.8C19.7,145.2,19.4,145.6,19,145.8z M30.3,147.1C30.2,147.1,30.2,147.1,30.3,147.1c-0.5,0-0.8-0.4-0.8-0.9
		c0.1-1.5-0.7-3-2-3.9c-0.9-0.6-2-0.8-3-0.7c-0.4,0.1-0.9-0.2-0.9-0.7c-0.1-0.4,0.2-0.9,0.7-0.9c1.5-0.2,2.9,0.1,4.2,0.9
		c1.8,1.2,2.8,3.2,2.7,5.3C31.1,146.8,30.7,147.1,30.3,147.1z M44.4,144.9c-0.3,0.3-0.8,0.4-1.2,0.1c-2.5-2.2-6.4-2-8.6,0.5
		c-0.2,0.2-0.4,0.3-0.6,0.3c-0.2,0-0.4-0.1-0.5-0.2c-0.3-0.3-0.4-0.8-0.1-1.2c2.8-3.2,7.7-3.5,10.9-0.7
		C44.6,144.1,44.7,144.7,44.4,144.9z"/>
</g>
</svg>
