<?xml version="1.0" encoding="utf-8"?>
<!-- Generator: Adobe Illustrator 18.0.0, SVG Export Plug-In . SVG Version: 6.00 Build 0)  -->
<!DOCTYPE svg PUBLIC "-//W3C//DTD SVG 1.1//EN" "http://www.w3.org/Graphics/SVG/1.1/DTD/svg11.dtd">
<svg version="1.1" id="Layer_1" xmlns="http://www.w3.org/2000/svg" xmlns:xlink="http://www.w3.org/1999/xlink" x="0px" y="0px"
	 viewBox="0 114.1 300.3 71.9" enable-background="new 0 114.1 300.3 71.9" xml:space="preserve">
<g>
	<g>
		<path fill="#939DAB" d="M0,114.1h16.9c8,0,9.8,5,9.8,8.6c0,3.4-1.5,5.3-3.8,6.7c2.7,1.1,5.3,3.5,5.3,8.6c0,6.8-5.3,10.4-10.8,10.4
			H0V114.1z M9.5,127.4h5c2,0,3.3-0.7,3.3-2.9c-0.1-1.8-1.5-2.3-3.4-2.3H9.5V127.4z M9.5,140.1H15c2,0,3.7-0.7,3.7-3.3
			c0-2-1.1-3.1-3.3-3.1H9.5V140.1z"/>
		<path fill="#939DAB" d="M29,114.1h8.6v34.2H29V114.1z"/>
		<path fill="#939DAB" d="M51.7,148.8c-8.5,0-12.1-6.1-12.1-13c0-7,3.8-13.1,12.1-13.1c8.5,0,12.1,6.1,12.1,13.1
			C64,142.7,60.1,148.8,51.7,148.8z M51.7,129.8c-3.3,0-3.7,3.5-3.7,6.1c0,2.6,0.4,6.1,3.7,6.1c3.3,0,3.7-3.5,3.7-6.1
			C55.4,133.2,55,129.8,51.7,129.8z"/>
		<path fill="#939DAB" d="M78.1,148.8c-8.5,0-12.1-6.1-12.1-13.1c0-7,3.8-13.1,12.1-13.1c8.5,0,12.1,6.1,12.1,13.1
			C90.3,142.7,86.5,148.8,78.1,148.8z M78.1,129.8c-3.3,0-3.7,3.5-3.7,6.1c0,2.6,0.4,6.1,3.7,6.1c3.3,0,3.7-3.5,3.7-6.1
			C81.8,133.2,81.3,129.8,78.1,129.8z"/>
		<path fill="#939DAB" d="M93.3,123.5h8.2v3.3h0.1c1.8-2.9,4.2-4,7.4-4c2.5,0,5,1.4,6,3.8c0.4-0.3,2-3.8,7.6-3.8
			c5.7,0,7.6,4.4,7.6,8.5v17h-8.6v-13.5c0-2.3-0.3-4.5-2.9-4.5c-2.2,0-2.9,1.9-2.9,4.5v13.5h-8.6v-13.5c0-2.3-0.3-4.5-2.9-4.5
			c-2.2,0-2.9,1.9-2.9,4.5v13.5H93v-24.8H93.3z"/>
		<path fill="#939DAB" d="M133.4,114.1h8.6v12.1h0.1c1.2-2,3.5-3.4,6.1-3.4c7.5,0,9.5,7.1,9.5,13c0,6.3-3,13.2-9.4,13.2
			c-4.2,0-5.5-1.8-6.5-3.4h-0.1v2.7h-8.2v-34.2H133.4z M145.4,129.8c-3,0-3.8,3.3-3.8,6.1c0,3,0.7,6.1,3.8,6.1c3,0,3.8-3.3,3.8-6.1
			C149.2,132.9,148.5,129.8,145.4,129.8z"/>
		<path fill="#939DAB" d="M167.6,137.9c0.3,2.9,1.6,4.8,4.4,4.8c1.4,0,2.9-0.5,3.5-1.8h7.9c-1.8,5.3-6.4,7.9-11.5,7.9
			c-7.1,0-12.5-4.6-12.5-13c0-7.2,4.8-13.1,11.9-13.1c8.9,0,12.7,5.5,12.7,15.1H167.6z M175.8,133c0-2.3-1.5-4.2-3.8-4.2
			c-2.6,0-4,1.5-4.4,4.2H175.8z"/>
		<path fill="#939DAB" d="M185.9,123.5h8.2v4h0.1c1.4-3,3.1-4.6,6.3-4.6c0.8,0,1.6,0.1,2.5,0.4v8.3c-0.8-0.3-1.6-0.7-3.4-0.7
			c-3.4,0-5.2,2.2-5.2,7.5v9.8h-8.6v-24.7H185.9z"/>
		<path fill="#939DAB" d="M228,145c0,4.9-1.2,11.9-11.6,11.9c-5.3,0-10.9-1.6-11.7-8.3h8.5c0.1,0.3,0.3,0.5,0.4,0.8
			c0.5,0.8,1.4,1.8,2.5,1.8c2.7,0,3.4-3.7,3.4-5.7v-2.3h-0.1c-1.4,2.2-3.4,3.4-6,3.4c-6.5,0-9.5-5.5-9.5-12.1
			c0-6.4,3.3-11.9,9.7-11.9c2.5,0,4.9,1.1,5.9,3.7h0.1v-2.7h8.6L228,145L228,145z M216.3,140.7c3.1,0,3.5-3.4,3.5-6.1
			c0-2.7-1.2-4.9-3.7-4.9c-2.5,0-3.7,2.3-3.7,4.9C212.3,137.4,213.1,140.7,216.3,140.7z"/>
		<path fill="#939DAB" d="M0,151h16.9c8,0,9.8,5,9.8,8.6c0,3.4-1.5,5.3-3.8,6.7c2.7,1.1,5.3,3.5,5.3,8.6c0,6.8-5.3,10.4-10.8,10.4H0
			V151z M9.5,164.4h5c2,0,3.3-0.7,3.3-2.9c0-1.8-1.2-2.3-3.3-2.3h-5V164.4z M9.5,177.2H15c2,0,3.7-0.7,3.7-3.3c0-2-1.1-3.1-3.3-3.1
			H9.5V177.2z"/>
		<path fill="#939DAB" d="M52.4,185.2h-8.2v-3.1H44c-1.6,2.5-3.8,3.8-7.2,3.8c-4,0-7.6-2.7-7.6-8.5v-17h8.6v13.1
			c0,2.9,0.3,4.9,2.9,4.9c1.5,0,3.4-0.8,3.4-4.8v-13.2h8.6v24.8H52.4z"/>
		<path fill="#939DAB" d="M67.6,167.7c0-0.8-0.4-1.5-1-1.9c-0.5-0.5-1.2-0.7-1.9-0.7c-1.2,0-2.6,0.3-2.6,1.9c0,0.7,0.5,1.1,1,1.2
			c1.4,0.7,4.6,0.8,7.5,1.9c2.9,1,5.3,2.9,5.3,7c0,7-6,8.7-11.3,8.7c-5.3,0-11-2.3-11.2-8.7h8.2c0,0.8,0.4,1.6,1.1,2.2
			c0.4,0.4,1.2,0.7,2.3,0.7c1.1,0,2.9-0.5,2.9-1.9c0-1.5-0.7-1.9-4.6-2.6c-6.5-1.2-9.1-3.5-9.1-7.8c0-6.3,6.1-7.9,10.5-7.9
			c4.8,0,10.6,1.5,10.9,7.9C75.5,167.7,67.6,167.7,67.6,167.7z"/>
		<path fill="#939DAB" d="M86.6,158.9H78v-6.7h8.6V158.9z M78.1,160.4h8.6v24.8h-8.6V160.4z"/>
		<path fill="#939DAB" d="M88.9,160.4h8.2v3.1h0.1c1.6-2.5,3.8-3.8,7.2-3.8c4,0,7.6,2.7,7.6,8.5v17h-8.5v-13.1
			c0-2.9-0.3-4.9-2.9-4.9c-1.5,0-3.4,0.8-3.4,4.8v13.1h-8.6v-24.7H88.9z"/>
		<path fill="#939DAB" d="M122.7,175c0.3,2.9,1.6,4.8,4.4,4.8c1.4,0,2.9-0.5,3.5-1.8h7.9c-1.8,5.3-6.4,7.9-11.5,7.9
			c-7.1,0-12.5-4.6-12.5-13c0-7.2,4.8-13.1,11.9-13.1c8.9,0,12.7,5.5,12.7,15.1C139.1,175,122.7,175,122.7,175z M130.9,170.1
			c0-2.3-1.5-4.2-3.8-4.2c-2.6,0-4,1.5-4.4,4.2H130.9z"/>
		<path fill="#939DAB" d="M154.9,167.7c0-0.8-0.4-1.5-1-1.9c-0.5-0.5-1.2-0.7-1.9-0.7c-1.2,0-2.6,0.3-2.6,1.9c0,0.7,0.5,1.1,1,1.2
			c1.4,0.7,4.6,0.8,7.5,1.9c2.9,1,5.3,2.9,5.3,7c0,7-6,8.7-11.3,8.7c-5.3,0-11-2.3-11.2-8.7h8.2c0,0.8,0.4,1.6,1.1,2.2
			c0.4,0.4,1.2,0.7,2.3,0.7c1.1,0,2.9-0.5,2.9-1.9c0-1.5-0.7-1.9-4.6-2.6c-6.5-1.2-9.1-3.5-9.1-7.8c0-6.3,6.1-7.9,10.5-7.9
			c4.8,0,10.6,1.5,10.9,7.9C162.8,167.7,154.9,167.7,154.9,167.7z"/>
		<path fill="#939DAB" d="M178.4,167.7c0-0.8-0.4-1.5-1-1.9c-0.5-0.5-1.2-0.7-1.9-0.7c-1.2,0-2.6,0.3-2.6,1.9c0,0.7,0.5,1.1,1,1.2
			c1.4,0.7,4.6,0.8,7.5,1.9c2.9,1,5.3,2.9,5.3,7c0,7-6,8.7-11.3,8.7s-11-2.3-11.2-8.7h8.2c0,0.8,0.4,1.6,1.1,2.2
			c0.4,0.4,1.2,0.7,2.3,0.7s2.9-0.5,2.9-1.9c0-1.5-0.7-1.9-4.6-2.6c-6.5-1.2-9.1-3.5-9.1-7.8c0-6.3,6.1-7.9,10.5-7.9
			c4.8,0,10.6,1.5,10.9,7.9C186.3,167.7,178.4,167.7,178.4,167.7z"/>
		<path fill="#939DAB" d="M217.9,185.2h-8.7l-3.3-15.3l0,0l-3.3,15.3h-8.7l-7.1-24.8h8.9l3.3,15.4h0.1l2.9-15.4h7.9l3,15.4h0.1
			l3.1-15.4h8.9L217.9,185.2z"/>
		<path fill="#939DAB" d="M231.3,175c0.3,2.9,1.6,4.8,4.4,4.8c1.4,0,2.9-0.5,3.5-1.8h7.9c-1.8,5.3-6.4,7.9-11.5,7.9
			c-7.1,0-12.5-4.6-12.5-13c0-7.2,4.8-13.1,11.9-13.1c8.9,0,12.7,5.5,12.7,15.1C247.6,175,231.3,175,231.3,175z M239.5,170.1
			c0-2.3-1.5-4.2-3.8-4.2c-2.6,0-4,1.5-4.4,4.2H239.5z"/>
		<path fill="#939DAB" d="M257.2,175c0.3,2.9,1.6,4.8,4.4,4.8c1.4,0,2.9-0.5,3.5-1.8h7.9c-1.8,5.3-6.4,7.9-11.5,7.9
			c-7.1,0-12.5-4.6-12.5-13c0-7.2,4.8-13.1,11.9-13.1c8.9,0,12.7,5.5,12.7,15.1C273.5,175,257.2,175,257.2,175z M265.4,170.1
			c0-2.3-1.5-4.2-3.8-4.2c-2.6,0-4,1.5-4.4,4.2H265.4z"/>
		<path fill="#939DAB" d="M275.2,151h8.6v16.5l5.5-7.2h9.7l-7.9,9.4l9.3,15.4H290l-4.6-9l-1.8,2v7.2H275V151H275.2z"/>
	</g>
</g>
</svg>
