<?xml version="1.0" encoding="utf-8"?>
<!-- Generator: Adobe Illustrator 18.0.0, SVG Export Plug-In . SVG Version: 6.00 Build 0)  -->
<!DOCTYPE svg PUBLIC "-//W3C//DTD SVG 1.1//EN" "http://www.w3.org/Graphics/SVG/1.1/DTD/svg11.dtd">
<svg version="1.1" id="Layer_1" xmlns="http://www.w3.org/2000/svg" xmlns:xlink="http://www.w3.org/1999/xlink" x="0px" y="0px"
	 viewBox="0 109.1 300 81.9" enable-background="new 0 109.1 300 81.9" xml:space="preserve">
<g>
	<g>
		<polygon fill="#939DAB" points="25.9,109.1 0,126 17.9,140.3 44,124.2 		"/>
		<polygon fill="#939DAB" points="0,154.7 25.9,171.6 44,156.4 17.9,140.3 		"/>
		<polygon fill="#939DAB" points="44,156.4 62.1,171.6 88,154.7 70.1,140.3 		"/>
		<polygon fill="#939DAB" points="88,126 62.1,109.1 44,124.2 70.1,140.3 		"/>
		<polygon fill="#939DAB" points="44.1,159.7 25.9,174.8 18.1,169.7 18.1,175.4 44.1,190.9 70,175.4 70,169.7 62.3,174.8 		"/>
	</g>
	<g>
		<path fill="#939DAB" d="M101.2,171.5h12c3.5,0,8.4,0,12.4-3.2c4.9-3.8,7.5-11.4,7.5-19.9c0-22.4-14.2-22.5-21.2-22.5h-10.7V171.5z
			 M111.2,133.8h1.7c4,0,9.6,0.5,9.6,14.5c0,14.9-5.6,15.4-9.6,15.4h-1.7V133.8z"/>
		<path fill="#939DAB" d="M136.5,137.9v33.7h9.4V157c0-2.6,0-10.4,6.9-10.4c0.3,0,0.8,0,1.6,0.2v-9.2c-0.5-0.1-1-0.2-1.6-0.2
			c-5.5,0-7.1,5.7-8,8.6v-8.1H136.5z"/>
		<path fill="#939DAB" d="M169.4,137.1c-10,0-13.7,7-13.7,17.6c0,10.9,4,17.6,13.7,17.6c9.8,0,13.7-6.8,13.7-17.6
			C183.1,144.1,179.4,137.1,169.4,137.1z M169.4,143.7c2.9,0,4,2.3,4,11c0,9-1.2,11-4,11c-2.8,0-4-2-4-11
			C165.4,146.4,166.3,143.7,169.4,143.7C169.3,143.7,169.4,143.7,169.4,143.7z"/>
		<path fill="#939DAB" d="M185.9,137.9v45.1h9.2v-13.9c1,1.1,2.7,2.9,6.4,2.9c10.7,0,11.4-13,11.4-17.8c0-5.7-1.1-10.9-4.4-14.3
			c-1.7-1.7-4.2-2.6-6.4-2.6c-4.6,0-6.4,3.4-7.6,5.5v-5H185.9z M195.1,151.4c0-3,0-7.8,4.2-7.8c3.6,0,3.9,4.7,3.9,10.7
			c0,7.1-0.3,11.3-4.2,11.3c-4,0-4-2.9-4-7.7L195.1,151.4L195.1,151.4z"/>
		<path fill="#939DAB" d="M215.8,126v45.5h5.6c0.8-2.4,1.1-3.1,1.8-4.4c0.8,1.7,2.4,5,7.8,5c1.8,0,3.6-0.3,5.5-1.3
			c6.1-3.2,6.6-13.3,6.6-16.5c0-8.1-2.6-17.1-10.9-17.1c-4.1,0-5.9,2.2-7.1,3.6v-15H215.8z M225,149.7c0-1.7,0-3.4,1.1-4.7
			c0.7-0.9,1.8-1.4,3-1.4c2.7,0,4.1,2.2,4.1,11.1c0,8.7-1.3,11-4.2,11c-4,0-4-4.4-4-8.2L225,149.7L225,149.7z"/>
		<path fill="#939DAB" d="M259.1,137.1c-10.1,0-13.7,7-13.7,17.6c0,10.9,4,17.6,13.7,17.6c9.8,0,13.7-6.8,13.7-17.6
			C272.7,144.1,269,137.1,259.1,137.1z M259.1,143.7c2.9,0,4,2.3,4,11c0,9-1.2,11-4,11c-2.8,0-4.1-2-4.1-11
			C255,146.4,256,143.7,259.1,143.7C259,143.7,259.1,143.7,259.1,143.7z"/>
		<path fill="#939DAB" d="M272.4,137.9l8.7,16.5l-10,17.2h8.1l5.7-10.1l4.9,10.1H300l-10-18.8l8.7-14.8h-8.1l-4.3,7.8l-3.7-7.8
			H272.4z"/>
	</g>
</g>
</svg>
