<?xml version="1.0" encoding="utf-8"?>
<!-- Generator: Adobe Illustrator 18.0.0, SVG Export Plug-In . SVG Version: 6.00 Build 0)  -->
<!DOCTYPE svg PUBLIC "-//W3C//DTD SVG 1.1//EN" "http://www.w3.org/Graphics/SVG/1.1/DTD/svg11.dtd">
<svg version="1.1" id="Layer_1" xmlns="http://www.w3.org/2000/svg" xmlns:xlink="http://www.w3.org/1999/xlink" x="0px" y="0px"
	 viewBox="0 42 300 216" enable-background="new 0 42 300 216" xml:space="preserve">
<g>
	<path fill="#939DAB" d="M111.9,148.3c0,7.5-1.2,11.3-6.8,11.3c-5.7,0-7.1-3.4-7.1-10.3V89h-44v70.9c0,12.3,3,22.5,10,30.5
		c6.9,8,15.5,11.9,26.2,11.9c7.3,0,14.5-2.2,22-6.8c-4.2,15.8-13.5,23.8-27.6,23.8c-4.4,0-8.7-1.2-15.6-3.7c0,0-6.4-2.1-15.3-7.1
		c0,11,0,36.8,0,36.8s8.6,5.4,15.3,7.9c8.1,3.1,16.1,4.7,24.1,4.7c18.3,0,33.7-7,46.6-21.1c10.8-11.8,16-27.3,16-46.6V89h-43.8
		V148.3z"/>
	<path fill="#939DAB" d="M53.8,191.6c-6.9-8-10-18.1-10-30.5V90.1l0,0V42.4H0v47.7l0,0V161c0,12.3,3,22.5,10,30.5
		c6.9,8,15.5,11.9,26.2,11.9c2.5,0,5-0.4,7.6-0.9l0.1,0.2v-0.2c4.9-1.1,10.1-3.2,14.9-6.2v-0.1C57.1,195,55.4,193.4,53.8,191.6z"/>
	<path fill="#939DAB" d="M229.4,42.2L229.4,42.2c38.2,2.8,48.5,28.6,51.2,45.9h17v46.2h-17.9c0,8.1,1.4,15.3,4.3,18.7
		c2.8,3.4,6.8,4.9,15.9,4.9v45.4c-1.8,0.1-3.8,0.1-4.9,0.1c-9.9,0-19-2.2-27.7-6.8c-8.6-4.6-15.6-10.7-20.9-18.5
		c-6.7-10-10.1-23.2-10.1-39.5V93.9l-0.1-0.7c-1.1-4.2-5-5.5-8.5-5.9c-0.4,0-0.6-0.1-1-0.1c-0.1,0-0.2,0-0.2,0c-0.2,0-0.6,0-0.9,0
		l0,0c-5.3,0.1-9.5,1.8-12.4,5.4c-3,3.6-4.6,8.7-4.6,15.5v5.4h19.2v42.7h-19.2V173c0,0,1.4,29.6-42.9,29.6L165.6,102
		c-0.1-9.5,0.1-54.2,49-59.6C214.7,42.4,221.8,41.6,229.4,42.2z"/>
</g>
</svg>
