<?xml version="1.0" encoding="utf-8"?>
<!-- Generator: Adobe Illustrator 18.0.0, SVG Export Plug-In . SVG Version: 6.00 Build 0)  -->
<!DOCTYPE svg PUBLIC "-//W3C//DTD SVG 1.1//EN" "http://www.w3.org/Graphics/SVG/1.1/DTD/svg11.dtd">
<svg version="1.1" id="Layer_1" xmlns="http://www.w3.org/2000/svg" xmlns:xlink="http://www.w3.org/1999/xlink" x="0px" y="0px"
	 viewBox="0 240.5 300.1 59.7" enable-background="new 0 240.5 300.1 59.7" xml:space="preserve">
<g>
	<path fill="#939DAB" d="M290.8,284.7v-1.1h0.7l0.7,0.5l-0.8,0.5 M290.8,285.1h0.5l0.9,1.4h0.5l-0.9-1.4l0.8-0.9
		c0-0.7-0.4-0.9-1.2-0.9h-1.3v3.3h0.5v-1.4h0.2V285.1z M291.4,287.7c1.6,0,2.9-1.2,2.9-2.9c0-1.7-1.3-2.9-2.9-2.9s-2.9,1.2-2.9,2.9
		C288.5,286.5,289.9,287.7,291.4,287.7 M289.1,284.8c0-1.3,1.1-2.4,2.4-2.4s2.4,1.1,2.4,2.4c0,1.4-1.1,2.4-2.4,2.4
		C290.1,287.3,289.1,286.3,289.1,284.8"/>
	<path fill="#939DAB" d="M118.1,285.7c-1.8,0.1-3.8,0-4.9-0.4c-4.3-1.7-5.9-5.5-6.3-14.8l0.4-0.8l0.9-0.4h13.7
		c0.7,0,1.3-0.5,1.3-1.3v-1.2c-0.1-7.1-4.2-13-11.3-12.9c-7.8,0.1-12.8,6.2-12.8,17.5c0,11.1,5.5,16.9,14.2,16.9
		c2.9,0,5.4-0.5,7.2-1.3c0.7-0.3,2.1-1.1,2.1-1.1v-1.6C122.4,284.4,120.7,285.5,118.1,285.7 M108.2,266.6c-0.7,0-1.3-0.5-1.3-1.3
		l0,0c0-6.7,2.2-9.1,4.7-9.1c2.4,0,4.3,2.8,4.3,8.7v0.4c0,0.7-0.5,1.3-1.3,1.3H108.2L108.2,266.6z"/>
	<path fill="#939DAB" d="M191,285.7c-1.8,0.1-3.8,0-4.9-0.4c-4.5-1.7-5.9-5.5-6.3-14.8l0.4-0.8l0.9-0.4h13.7c0.7,0,1.3-0.5,1.3-1.3
		v-1.2c-0.1-7.1-4.2-13-11.3-12.9c-7.8,0.1-12.8,6.2-12.8,17.5c0,11.1,5.5,16.9,14.2,16.9c2.9,0,5.4-0.5,7.2-1.3l2.1-1.1v-1.6
		C195.4,284.4,193.7,285.5,191,285.7 M181.2,266.6c-0.7,0-1.3-0.5-1.3-1.3l0,0c0-6.7,2.2-9.1,4.9-9.1c2.4,0,4.3,2.8,4.3,8.7v0.4
		c0,0.7-0.5,1.3-1.3,1.3H181.2L181.2,266.6z"/>
	<path fill="#939DAB" d="M245.1,285.7c-1.8,0.1-3.8,0-4.9-0.4c-4.3-1.7-5.9-5.5-6.3-14.8l0.3-0.8l0.9-0.4h13.7
		c0.7,0,1.3-0.5,1.3-1.3v-1.2c-0.1-7.1-4.2-13-11.3-12.9c-7.8,0.1-12.9,6.2-12.9,17.5c0,11.1,5.5,16.9,14.2,16.9
		c2.9,0,5.4-0.5,7.2-1.3l2.1-1.1v-1.6C249.4,284.4,247.7,285.5,245.1,285.7 M235.2,266.6c-0.7,0-1.3-0.5-1.3-1.3l0,0
		c0-6.7,2.2-9.1,4.7-9.1c2.4,0,4.3,2.8,4.3,8.7v0.4c0,0.7-0.5,1.3-1.3,1.3H235.2L235.2,266.6z"/>
	<path fill="#939DAB" d="M125.3,259.3c0-1.6,0-2.4-0.8-2.1l-0.1-0.3l7-3.3c0.8-0.3,1.3,0.3,1.3,1.3v2.8l0.1,0.4l0.4-0.4l1.4-1.4
		c1.4-1.2,3.2-2,5.4-2c6.2,0,10.9,5.4,10.9,17.1c0,12.1-5.1,17.3-12.9,17.3c-0.8,0-1.6,0-2.2-0.1c-1.2-0.1-2.2-0.7-2.5-0.7l-0.3,0.3
		v9.6c0,0.7,0,1.7,0.9,2.1v0.3h-9.5v-0.3c0.9-0.4,0.9-1.3,0.9-2.1 M143.1,271.4c0-9.6-2-13-6.1-13c-1.2,0-2.6,0.7-3.6,1.4
		c-0.3,0.1-0.5,0.5-0.5,1.7v21.1c0,1.4,0.1,1.8,0.8,2.1c0.9,0.3,2,0.4,3.3,0.4C140.7,285.1,143.1,281.8,143.1,271.4"/>
	<path fill="#939DAB" d="M40.4,263v22.2c0,0.7,0,1.6,0.9,2.1v0.3h-9.5v-0.3c0.9-0.4,0.9-1.3,0.9-2.1v-26.5c0-1.1-0.1-1.4-0.8-1.2
		l-0.1-0.3l7-3.3c0.8-0.3,1.3,0.3,1.3,1.3v3.3v0.5l0.1,0.4l0.7-0.8c2.9-3.4,5.9-4.6,8.7-4.6c4.7,0,8,3.8,8,10.3v20.9
		c0,0.7,0,1.6,0.9,2.1v0.3H49v-0.3c0.9-0.4,0.9-1.3,0.9-2.1v-20.6c0-3.7-1.3-5.4-4.2-5.4c-1.3,0-3.2,0.8-4.5,1.7l-0.4,0.4
		C40.6,261.8,40.4,262.2,40.4,263"/>
	<path fill="#939DAB" d="M206.2,263v22.2c0,0.7,0,1.6,0.9,2.1v0.3h-9.5v-0.3c0.9-0.4,0.9-1.3,0.9-2.1v-26.5c0-1.1-0.1-1.4-0.8-1.2
		l-0.1-0.3l7-3.3c0.8-0.3,1.3,0.3,1.3,1.3v3.3v0.4l0.1,0.4l0.7-0.8c2.9-3.4,5.9-4.6,8.7-4.6c4.7,0,8,3.8,8,10.3v21
		c0,0.7,0,1.6,0.9,2.1v0.3h-9.5v-0.3c0.9-0.4,0.9-1.3,0.9-2.1v-20.6c0-3.7-1.3-5.4-4.2-5.4c-1.3,0-3.2,0.8-4.5,1.7l-0.4,0.4
		C206.3,261.8,206.2,262.2,206.2,263"/>
	<path fill="#939DAB" d="M59.7,256.5h1.7c0.7,0,1.3,0.5,1.3,1.3v22.4c0,4.5,2.1,8.3,7.4,8.3c2.1,0,3.8-0.4,5.1-1.1
		c1.3-0.5,2.6-1.8,2.6-1.8V284c0,0-1.6,1.2-4.3,1.3c-2.5,0-3.2-2.2-3.2-5.3v-22.3c0-0.7,0.5-1.3,1.3-1.3h3.2c2.4,0,2.4,0,2.4-0.9
		v-1.2c0-0.5,0-0.5-1.2-0.5h-4.2c-0.7,0-1.3-0.5-1.3-1.3v-7.1c0-1.1,0-0.9-1.1-0.9c-0.7,0-1.2,0-2.1,1.2c-3,3.8-6.1,6.6-8.4,7.8
		c-1.2,0.5-1.2,0.4-1.2,1.7c0,1.3,0,1.3,1.4,1.3"/>
	<path fill="#939DAB" d="M87.4,259.4v0.4v0.5l0.3,0.4l0.5-0.8c1.3-3,4.5-6.5,8.2-6.6c2.4,0,4.1,1.7,4.1,4.1c0,1.7-1.3,3.8-3,3.8
		c-3.4,0.1-3.7-2.2-5.3-2.2c-1.7,0-3.3,4.3-3.7,6.1c-0.7,2.5-1.1,5.5-1.1,8.3v0.9v11.5c0,0.7,0,1.6,0.9,2.1v0.1h-9.1v-0.3
		c0.9-0.4,0.9-1.3,0.9-2.1v-26.9c0-1.1-0.1-1.4-0.8-1.2l-0.1-0.3l6.9-3.3c0.8-0.3,1.3,0.3,1.3,1.3"/>
	<path fill="#939DAB" d="M160.5,259.8v0.5l0.3,0.4l0.5-0.8c1.3-3,4.5-6.5,8.2-6.6c2.4,0,4.1,1.7,4.1,4.1c0,1.7-1.3,3.8-3,3.8
		c-3.4,0.1-3.7-2.2-5.3-2.2c-1.7,0-3.3,4.3-3.7,6.1c-0.7,2.5-1.1,5.5-1.1,8.3v0.9v11.2c0,0.7,0,1.6,0.9,2v0.3h-9.2v-0.3
		c0.9-0.4,0.9-1.3,0.9-2V259c0-1.1-0.1-1.4-0.8-1.2l-0.1-0.3l7-3.3c0.8-0.3,1.3,0.3,1.3,1.3"/>
	<path fill="#939DAB" d="M287,259.8v0.5l0.3,0.4l0.5-0.8c1.3-3,4.5-6.5,8.2-6.6c2.4,0,4.1,1.7,4.1,4.1c0,1.7-1.3,3.8-3,3.8
		c-3.4,0.1-3.7-2.2-5.3-2.2c-1.7,0-3.3,4.3-3.7,6.1c-0.7,2.5-1.1,5.5-1.1,8.3v0.9v11.2c0,0.7,0,1.6,0.9,2.1v0.3h-9.2v-0.3
		c0.9-0.4,0.9-1.3,0.9-2.1V259c0-1.1-0.1-1.4-0.8-1.2l-0.1-0.3l7-3.3c0.8-0.3,1.3,0.3,1.3,1.3"/>
	<path fill="#939DAB" d="M259.6,279.7c0,3,1.4,4.7,4.2,4.7c1.3,0,3-0.8,4.3-1.7l0.5-0.4c0.3-0.3,0.5-0.7,0.5-1.4v-22.1
		c0-0.9-0.1-1.3-0.8-1.1l-0.1-0.3l7-3.3c0.8-0.3,1.3,0.3,1.3,1.3v28.1c0,1.2-0.1,2.4,0.8,2.1l0.1,0.3l-6.9,2.6
		c-0.7,0-1.3-0.5-1.3-1.3v-1.3v-0.5l-0.1-0.4l-0.7,0.8c-2.6,2.5-5.1,2.9-7.9,2.9c-5.4,0-8-4-8-9.9v-20c0-0.9-0.1-1.3-0.8-1.1
		l-0.1-0.3l7-3.3c0.8-0.3,1.3,0.3,1.3,1.3"/>
	<path fill="#939DAB" d="M22.4,259.5h-0.3c-0.4,0.9-1.3,0.9-2.1,0.9h-9.1c-0.7,0-1.3-0.5-1.3-1.3v-11.9c0-0.7,0.5-1.3,1.3-1.3h11.6
		c3.7,0,4.2,1.4,4.9,4h0.4l1.1-9.4h-0.3c-0.4,0.9-1.3,0.9-2.1,0.9H0v0.4c0.9,0.4,0.9,1.3,0.9,2.1v41.3c0,0.7-0.1,1.7-0.9,2.1v0.3
		h27.5c1.3,0,2.1,0,2.1,0.9h0.3l1.1-9.3h-0.4c-1.1,2.5-3.3,4-7.1,4H10.9c-0.7,0-1.3-0.5-1.3-1.3v-15.7c0-0.7,0.7-1.3,1.3-1.3h8.4
		c1.3,0,2.1,0,2.1,0.9h0.3"/>
</g>
</svg>
